<?xml version="1.0" encoding="UTF-8"?>
<svg version="1.1" xmlns="http://www.w3.org/2000/svg" width="393" height="165">
<path d="M0 0 C2.01822917 0.06510417 4.03645833 0.13020833 6.0546875 0.1953125 C9.0546875 6.1953125 12.0546875 12.1953125 15.0546875 18.1953125 C15.46460938 16.97972656 15.87453125 15.76414062 16.296875 14.51171875 C16.84075985 12.92695081 17.38505176 11.34232253 17.9296875 9.7578125 C18.19910156 8.95537109 18.46851563 8.15292969 18.74609375 7.32617188 C19.01035156 6.56240234 19.27460938 5.79863281 19.546875 5.01171875 C19.78776855 4.30474854 20.02866211 3.59777832 20.27685547 2.86938477 C21.0546875 1.1953125 21.0546875 1.1953125 23.0546875 0.1953125 C25.3876741 0.15508859 27.72175416 0.15211003 30.0546875 0.1953125 C29.50492476 7.85156716 27.6330804 14.71018402 25.3046875 22.0078125 C24.96953125 23.12607422 24.634375 24.24433594 24.2890625 25.39648438 C23.94875 26.47091797 23.6084375 27.54535156 23.2578125 28.65234375 C22.95520508 29.62147705 22.65259766 30.59061035 22.34082031 31.58911133 C20.76088698 34.79066568 19.02226298 36.2496685 16.0546875 38.1953125 C13.015625 38.51171875 13.015625 38.51171875 10.0546875 37.1953125 C8.11415304 34.36800791 6.92067159 31.31736116 5.6796875 28.1328125 C5.32519531 27.27880859 4.97070312 26.42480469 4.60546875 25.54492188 C3.73366943 23.43611001 2.88483735 21.32078784 2.0546875 19.1953125 C-0.79803038 23.47438932 -2.02728629 28.17785985 -3.62890625 33.04296875 C-4.9453125 36.1953125 -4.9453125 36.1953125 -7.9453125 38.1953125 C-11.1328125 37.8203125 -11.1328125 37.8203125 -13.9453125 37.1953125 C-13.39841305 29.5003413 -10.97959834 22.59254627 -8.5078125 15.3203125 C-8.09982422 14.08539063 -7.69183594 12.85046875 -7.27148438 11.578125 C-3.49841614 0.3512466 -3.49841614 0.3512466 0 0 Z " fill="#FFFFFF" transform="translate(259.9453125,66.8046875)"/>
<path d="M0 0 C1.04607422 -0.02449219 2.09214844 -0.04898438 3.16992188 -0.07421875 C10.81888043 -0.10343183 10.81888043 -0.10343183 14.87890625 2.1328125 C17.42219169 5.28582727 17.40449345 7.07388826 17.171875 10.99609375 C16.04817269 16.51492204 13.00878831 20.73811243 8.375 23.875 C7.488125 24.37 6.60125 24.865 5.6875 25.375 C6.038125 26.096875 6.38875 26.81875 6.75 27.5625 C7.82582828 30.78998485 7.93348883 32.21849497 6.6875 35.375 C4.32176259 37.29316547 2.78287286 38.37929558 -0.3046875 38.3671875 C-3.60355897 36.73700588 -3.96646311 33.99910744 -5.125 30.625 C-5.78435547 28.77648437 -5.78435547 28.77648437 -6.45703125 26.890625 C-7.2912742 23.4622293 -7.4079731 21.67977919 -6.3125 18.375 C-4.65873289 16.72123289 -2.50301636 16.74028792 -0.25 16.3125 C0.66910156 16.13589844 1.58820313 15.95929688 2.53515625 15.77734375 C3.24542969 15.64457031 3.95570313 15.51179688 4.6875 15.375 C5.06968767 13.71885343 5.40145102 12.05042976 5.6875 10.375 C4.02407163 8.71157163 1.9049291 9.01451903 -0.375 8.8125 C-1.29410156 8.72871094 -2.21320313 8.64492187 -3.16015625 8.55859375 C-3.87042969 8.49800781 -4.58070313 8.43742187 -5.3125 8.375 C-5.58320313 9.66664062 -5.85390625 10.95828125 -6.1328125 12.2890625 C-7.22786627 17.20237052 -8.62522935 21.96704832 -10.1875 26.75 C-10.43113281 27.54277344 -10.67476562 28.33554688 -10.92578125 29.15234375 C-12.03026577 32.53446992 -12.81479519 34.86864781 -15.3359375 37.43359375 C-17.98863413 38.69703227 -19.55988633 38.2160764 -22.3125 37.375 C-23.91760653 33.38632591 -22.58740766 30.14660095 -21.29296875 26.2734375 C-21.0743367 25.59576324 -20.85570465 24.91808899 -20.63044739 24.21987915 C-20.16702489 22.79113121 -19.6985377 21.36401742 -19.2253418 19.93847656 C-18.50151159 17.75456071 -17.79549221 15.56547603 -17.09179688 13.375 C-16.63906342 11.98663875 -16.18532147 10.59860588 -15.73046875 9.2109375 C-15.51891647 8.55572113 -15.3073642 7.90050476 -15.08940125 7.22543335 C-12.27333997 -1.19129118 -7.98090123 0.00972688 0 0 Z " fill="#FFFFFF" transform="translate(165.3125,66.625)"/>
<path d="M0 0 C0.78375 0.495 1.5675 0.99 2.375 1.5 C2.0625 4.375 2.0625 4.375 1.375 7.5 C-1.625 9.5 -1.625 9.5 -4.5 9.1875 C-6.44447331 8.75971587 -8.38363944 8.30592945 -10.3125 7.8125 C-12.89691143 7.20379142 -12.89691143 7.20379142 -15.625 9.5 C-15.625 10.16 -15.625 10.82 -15.625 11.5 C-14.86574219 11.75394531 -14.10648438 12.00789063 -13.32421875 12.26953125 C-12.33035156 12.61371094 -11.33648437 12.95789063 -10.3125 13.3125 C-8.83330078 13.81716797 -8.83330078 13.81716797 -7.32421875 14.33203125 C-4.70371316 15.46594032 -3.30373617 16.2189266 -1.625 18.5 C-1.01098894 23.10508292 -1.06311949 26.240381 -3.5 30.25 C-6.95548718 34.49392228 -11.35934869 36.34598934 -16.625 37.5 C-22.6180187 37.77280996 -27.45317283 36.63031645 -32.625 33.5 C-32.875 31.1875 -32.875 31.1875 -32.625 28.5 C-30.9375 26.625 -30.9375 26.625 -28.625 25.5 C-25.92690224 25.75696169 -24.04149307 26.29175346 -21.625 27.5 C-20.25157169 27.5689472 -18.87497898 27.58467708 -17.5 27.5625 C-15.581875 27.5315625 -15.581875 27.5315625 -13.625 27.5 C-13.625 26.18 -13.625 24.86 -13.625 23.5 C-14.78128906 23.11908203 -14.78128906 23.11908203 -15.9609375 22.73046875 C-16.96382812 22.38628906 -17.96671875 22.04210937 -19 21.6875 C-19.99773437 21.35105469 -20.99546875 21.01460937 -22.0234375 20.66796875 C-24.625 19.5 -24.625 19.5 -26.625 16.5 C-26.86778667 12.17839727 -26.16048767 8.46387781 -24.0625 4.6875 C-16.99906647 -1.65147881 -8.95708244 -3.70637894 0 0 Z " fill="#FFFFFF" transform="translate(108.625,67.5)"/>
<path d="M0 0 C0.94617188 -0.02835937 1.89234375 -0.05671875 2.8671875 -0.0859375 C7.5488899 -0.09908835 9.88914202 -0.03993579 13.75 2.79296875 C15.79012759 5.73840296 16.35918762 7.78962006 16.1015625 11.3828125 C14.8109874 17.11635104 11.52726198 21.20052918 6.75 24.5 C2.93766496 26.62196007 0.01014932 27.25896815 -4.375 26.5 C-6.578125 24.46484375 -6.578125 24.46484375 -8.375 22.5 C-8.70113281 23.48742187 -9.02726562 24.47484375 -9.36328125 25.4921875 C-9.80414644 26.78664273 -10.24558255 28.08090362 -10.6875 29.375 C-10.90083984 30.02597656 -11.11417969 30.67695312 -11.33398438 31.34765625 C-12.58323342 34.96488484 -13.09631884 36.31421256 -16.375 38.5 C-19.5625 38.125 -19.5625 38.125 -22.375 37.5 C-23.65883069 33.64850794 -22.6059243 31.23226948 -21.390625 27.53125 C-21.17436462 26.85453247 -20.95810425 26.17781494 -20.73529053 25.48059082 C-20.27551357 24.05025608 -19.81122293 22.62136557 -19.34277344 21.19384766 C-18.62900945 19.01225472 -17.93471707 16.8251319 -17.2421875 14.63671875 C-16.79282872 13.24701955 -16.34234467 11.85768359 -15.890625 10.46875 C-15.68423401 9.81555786 -15.47784302 9.16236572 -15.26519775 8.48937988 C-12.33230547 -0.32528558 -8.51881305 -0.02302382 0 0 Z M-4.375 8.5 C-4.88115298 9.76839526 -5.37969099 11.03983102 -5.875 12.3125 C-6.1534375 13.02019531 -6.431875 13.72789063 -6.71875 14.45703125 C-7.5279162 16.61841216 -7.5279162 16.61841216 -7.375 19.5 C-5.76772673 19.27082032 -4.16412584 19.01579198 -2.5625 18.75 C-1.66917969 18.61078125 -0.77585938 18.4715625 0.14453125 18.328125 C3.16189738 17.32075237 4.08038418 16.24078296 5.625 13.5 C5.37703633 11.33031791 5.18266393 10.05766393 3.625 8.5 C0.95441149 8.35884839 -1.69932238 8.45752893 -4.375 8.5 Z " fill="#FFFFFF" transform="translate(130.375,66.5)"/>
<path d="M0 0 C0.66163651 0.00565979 1.32327301 0.01131958 2.00495911 0.01715088 C4.11472457 0.03951253 6.22278077 0.08970129 8.33203125 0.140625 C9.76364731 0.1606906 11.19529005 0.17894128 12.62695312 0.1953125 C16.1333664 0.23937431 19.63878197 0.30839723 23.14453125 0.390625 C22.26953125 7.265625 22.26953125 7.265625 21.14453125 8.390625 C19.29165623 8.46289002 17.43619247 8.4744372 15.58203125 8.453125 C14.57011719 8.44410156 13.55820312 8.43507813 12.515625 8.42578125 C11.34193359 8.40837891 11.34193359 8.40837891 10.14453125 8.390625 C9.88671875 9.6590625 9.62890625 10.9275 9.36328125 12.234375 C8.17014029 17.5951069 6.46864338 22.71594708 4.64453125 27.890625 C4.33644531 28.79554687 4.02835937 29.70046875 3.7109375 30.6328125 C3.41058594 31.49132812 3.11023438 32.34984375 2.80078125 33.234375 C2.53072266 34.00974609 2.26066406 34.78511719 1.98242188 35.58398438 C1.14453125 37.390625 1.14453125 37.390625 -0.85546875 38.390625 C-3.91796875 38.515625 -3.91796875 38.515625 -6.85546875 38.390625 C-7.18546875 38.060625 -7.51546875 37.730625 -7.85546875 37.390625 C-7.42711414 30.66156352 -5.50065277 24.7295197 -3.29296875 18.390625 C-2.96361328 17.42511719 -2.63425781 16.45960937 -2.29492188 15.46484375 C-1.48860673 13.10432694 -0.67534712 10.74645783 0.14453125 8.390625 C-2.82546875 8.390625 -5.79546875 8.390625 -8.85546875 8.390625 C-9.85546875 4.390625 -9.85546875 4.390625 -8.84643555 2.16503906 C-5.94282337 -0.4227541 -3.84187371 -0.06484175 0 0 Z " fill="#FFFFFF" transform="translate(302.85546875,66.609375)"/>
<path d="M0 0 C20.46 0 40.92 0 62 0 C61 7 61 7 60 8 C58.06693502 8.09396057 56.13041162 8.11743517 54.19506836 8.11352539 C52.33325172 8.11341209 52.33325172 8.11341209 50.43382263 8.11329651 C49.0691626 8.10818911 47.70450298 8.1029731 46.33984375 8.09765625 C44.95121817 8.095792 43.56259193 8.09436813 42.17396545 8.09336853 C38.51278885 8.08954387 34.8516517 8.07971403 31.19049072 8.06866455 C27.45707737 8.05844932 23.72365766 8.05387067 19.99023438 8.04882812 C12.66013823 8.03809171 5.33007464 8.02101591 -2 8 C-1.34 5.36 -0.68 2.72 0 0 Z " fill="#FFFFFF" transform="translate(190,67)"/>
<path d="M0 0 C2.62527189 -0.05382106 5.24944713 -0.09358313 7.875 -0.125 C8.62136719 -0.14175781 9.36773437 -0.15851563 10.13671875 -0.17578125 C12.09194461 -0.1933959 14.04742021 -0.10320189 16 0 C16.66 0.66 17.32 1.32 18 2 C17.67028521 5.29714793 17.3773161 6.6226839 15 9 C12.8359375 9.1953125 12.8359375 9.1953125 10.375 9.125 C9.55773437 9.10695313 8.74046875 9.08890625 7.8984375 9.0703125 C7.27195313 9.04710938 6.64546875 9.02390625 6 9 C5.67 10.65 5.34 12.3 5 14 C10.94 14.33 16.88 14.66 23 15 C24 19 24 19 23.1875 21.1875 C22 23 22 23 20 24 C17.96767366 24.08527628 15.93252994 24.10716135 13.8984375 24.09765625 C12.68671875 24.09443359 11.475 24.09121094 10.2265625 24.08789062 C8.95554688 24.07951172 7.68453125 24.07113281 6.375 24.0625 C5.09625 24.05798828 3.8175 24.05347656 2.5 24.04882812 C-0.66671292 24.03701203 -3.83333356 24.02053815 -7 24 C-6.40531984 18.33171945 -4.90757199 13.39677846 -2.9375 8.0625 C-2.65583984 7.28326172 -2.37417969 6.50402344 -2.08398438 5.70117188 C-1.39532294 3.79859875 -0.69850097 1.89898275 0 0 Z " fill="#FFFFFF" transform="translate(219,81)"/>
<path d="M0 0 C1.48831242 0.00667405 2.97660807 0.01863442 4.46484375 0.03515625 C5.22345703 0.03966797 5.98207031 0.04417969 6.76367188 0.04882812 C8.64326246 0.06064945 10.52281274 0.07858547 12.40234375 0.09765625 C13.44921875 1.9609375 13.44921875 1.9609375 14.40234375 4.09765625 C13.476856 6.79699551 12.97860838 7.80952393 10.40234375 9.09765625 C7.72998165 9.23181097 5.07983887 9.14084166 2.40234375 9.09765625 C2.07234375 10.74765625 1.74234375 12.39765625 1.40234375 14.09765625 C7.34234375 14.42765625 13.28234375 14.75765625 19.40234375 15.09765625 C19.40234375 21.09765625 19.40234375 21.09765625 18.28979492 22.9543457 C15.54662956 24.61599923 13.39293842 24.43555195 10.203125 24.390625 C8.99462891 24.38095703 7.78613281 24.37128906 6.54101562 24.36132812 C5.27837891 24.33619141 4.01574219 24.31105469 2.71484375 24.28515625 C0.80348633 24.26485352 0.80348633 24.26485352 -1.14648438 24.24414062 C-4.29729682 24.20873824 -7.4472667 24.15935415 -10.59765625 24.09765625 C-9.97866352 18.73774197 -8.75068813 13.85177802 -7.09765625 8.72265625 C-6.87207031 7.99949219 -6.64648438 7.27632813 -6.4140625 6.53125 C-4.38088358 0.11891649 -4.38088358 0.11891649 0 0 Z " fill="#FFFFFF" transform="translate(189.59765625,80.90234375)"/>
</svg>
